<?xml version="1.0" encoding="utf-8"?>
<!-- Generator: Adobe Illustrator 16.2.1, SVG Export Plug-In . SVG Version: 6.00 Build 0)  -->
<!DOCTYPE svg PUBLIC "-//W3C//DTD SVG 1.1//EN" "http://www.w3.org/Graphics/SVG/1.1/DTD/svg11.dtd">
<svg version="1.1" id="Layer_1" xmlns="http://www.w3.org/2000/svg" xmlns:xlink="http://www.w3.org/1999/xlink" x="0px" y="0px"
	 width="262px" height="403px" viewBox="0 0 262 403" enable-background="new 0 0 262 403" xml:space="preserve">
<polygon fill="#1A171A" points="261.4,-0.132 0,-0.132 0,234.1 130.701,281.083 261.4,234.1 "/>
<polygon fill="#FFFFFF" points="246.234,15.033 246.234,223.436 130.701,264.968 15.165,223.436 15.165,15.033 "/>
<g>
	<path d="M24.949,346.301v28.803c0,7.9,0,11.342,7.262,11.342c2.298,0,4.203-0.127,6.373-0.771v12.875
		c-4.586,0.768-7.65,1.021-11.089,1.021c-3.19,0-13.888,0-16.82-7.772c-1.018-2.551-1.018-6.626-1.018-12.997v-32.498H0.354v-10.959
		h9.303v-22.556h15.292v22.556h13.635v10.959L24.949,346.301L24.949,346.301z"/>
	<path d="M75.281,400.971c-19.874,0-33.127-14.525-33.127-34.021c0-19.498,13.503-33.519,32.496-33.519
		c17.711,0,32.873,12.361,33.001,33.519C107.651,386.824,94.526,400.971,75.281,400.971 M74.517,347.192
		c-9.553,0-16.437,7.647-16.437,19.368c0,13.129,8.028,20.394,17.201,20.394c11.089,0,16.696-9.688,16.314-20.262
		C91.339,356.113,85.226,347.192,74.517,347.192"/>
	<path d="M146.021,309.089v31.607c5.102-4.719,11.471-7.267,18.477-7.267c14.402,0,27.916,13.252,27.916,33.519
		c0,20.768-13.77,34.021-28.932,34.021c-8.412,0-14.143-4.717-17.461-8.539v6.626h-15.167v-89.969L146.021,309.089L146.021,309.089z
		 M160.807,347.322c-6.885,0-15.041,5.225-15.041,18.855c0,3.952,0.508,6.629,1.021,8.158c3.062,12.105,13.381,12.105,14.658,12.105
		c11.217,0,14.906-11.342,15.162-19.751C176.99,354.076,169.084,347.322,160.807,347.322"/>
	<path d="M261.576,384.786c-7.9,10.574-18.098,16.185-31.096,16.185c-16.695,0-32.748-10.579-32.748-34.021
		c0-21.411,13.762-33.519,31.729-33.519c16.82,0,23.826,10.065,25.107,11.979c5.223,7.393,6.369,18.478,6.492,24.851h-47.146
		c1.781,10.065,8.029,15.803,18.098,15.803c10.443,0,14.648-6.115,16.562-8.796L261.576,384.786z M244.244,359.045
		c-1.402-9.938-7.52-13.38-14.275-13.38c-8.156,0-13.762,4.714-15.547,13.38H244.244z"/>
</g>
</svg>
